<svg xmlns="http://www.w3.org/2000/svg" width="1e3" height="1000.7" version="1.0" viewBox="370 0 700 700"><circle r="330" cx="730" cy="370"/><circle r="290" cx="730" cy="370" fill="#fff"/><path d="M546 163Q535 165 526 172A63 63 0 00504.37 224.005C504.7 239.295 505.47 250.185 505.69 257.555L507.56 274.825 510.31 293.525Q514.05 318.715 511.85 428.495C510.31 456.875 509.21 559.615 518.12 589.205A339 339 0 00580.6 646.515Q736.8 718.015 962.3 595.915C903 506 877 497 836 488 794 480 772 468 756 447A91 91 0 01739 401V392L745 389C752 383 763.728 370.822 767.809 362.66 771.109 355.411 772.11 356.225 784 361L792 364Q792 362 782 356L774.42 353.035 776.4 342.585 779.81 330.485Q782 327 795 332L804 333Q803 331 791 327L780.25 324.325 783.33 310.685Q786 291 786.641 276.915L787.4 260.745C787.95 248.975 790.66 241.205 791.66 227.205 791.66 211.205 790.66 202.205 784.66 190.205Q775.66 174.205 761.66 166.205C756.66 164.205 755.66 163.205 743.66 163.205 732.66 163.205 731.66 164.205 724.66 167.205Q710.66 174.205 699.66 183.205 694.66 188.205 693.66 187.205A160 160 0 00611.66 185.205C602.66 188.205 602.66 188.205 600.66 186.205 597.66 182.205 583.66 172.205 576.66 168.205Q560.66 162.205 545.66 163.205M569.66 179.205Q581.66 184.205 594.66 196.205L600.66 201.205 615.66 198.205A162 162 0 01697.66 201.205L705.66 194.205Q725.66 175.205 743.66 174.205 757.66 173.205 766.66 184.205 779.66 198.205 779.66 223.205 780.69 230.935 778.16 245.565 771.78 293.415 767.82 319.265V323.115H759.13Q740.66 323.205 719.66 332.205 706.66 337.205 721.66 334.205C732.66 331.205 749.66 329.205 759.66 329.205H765.73L763.75 336.865 758.58 347.865Q761.66 348.205 750.66 345.205C739.66 343.205 725.66 341.205 719.66 342.205Q709.66 344.205 719.66 345.205C728.66 345.205 757.66 351.205 754.95 357.545S749.66 366.205 742.66 372.205Q728.66 385.205 717.22 391.975 701.71 400.555 711.66 400.205C723.66 398.205 725.47 396.265 723.66 406.205 731.3 437.515 747.66 469.205 778.66 485.205 790.66 490.205 801.66 494.205 827.66 500.205 871.66 510.205 892.66 518.205 906.2 537.615 922.2 547.615 935.9 584.915 975.5 602.515Q973.86 585.005 943.6 605.815C945.8 582.715 549.56 820.705 533.96 522.875Q525.16 392.745 522.41 320.805L516.8 265.145Q515.48 249.965 516.8 219.195 516.8 188.195 536.8 177.195C541.8 174.195 542.8 174.195 549.8 174.195 556.8 175.195 559.8 175.195 566.8 179.195M1039.3 560.715z"/><path d="M544.916 185.857Q536.314 190.521 532.904 200.245 529.692 208.99 527.8 218.945C527.25 229.945 529.23 233.685 530.99 241.825L539.35 264.375 540.45 228.295 555.85 243.805 555.958339 217.762845 565.42 232.915 560.69 210.365 579.61 219.275Q553.890468 181.035533 544.965612 186.13545z"/><path d="M746.46289 183.442668 737.83803 187.492602C728.891 192.831 727.641066 210.149159 727.788193 210.067236L740.987979 202.717355 737.83803 219.367085 752.462793 214.717161 753.3 228.845 762.749 218.714 764.212 239.031Q770.691 227.206 768.188057 212.967075 761.912639 177.817759 746.46289 183.442668Z"/><path d="M618.66 256.675Q611.466 259.942 605.664 265.394L599.664 272.394Q592.15 283.449 592.464311 292.893489 593.439296 303.31832 602.889142 306.243273C607.164073 307.368254 612.5 307.781 624.6 301.665 635.6 293.965 637.03 250.845 618.66 256.565ZM619.826 272.273Q622.092 274.154 618.462 276.277 614.48 274.858 616.273 272.504 617.835 270.491 619.837 272.295Z"/><path d="M704.35 254.3474Q715.79 254.915 723.93 264.045 730.09 269.545 731.784 278.422 733.082 285.506 732.51 292.865 730.662 302.138 725.899 303.887C717.055 305.537 714.283 304.129 707.584 302.006Q701.259 299.531 698.85 292.425C695.11 275.925 693.24 255.355 704.35 254.365zm7.721 18.0136q-2.881 1.804 1.364 4.004 3.982-1.419 2.189-3.773Q714.062 270.579 712.06 272.383Z"/><path d="M651 319q-13 4-8 14c4 10 14 18 21 18q12-1 20-16 6-12-9-16z"/><path d="M552 325q-12 4 2 3c10 0 27 1 41 4s16 3 15 2c-2-2-20-7-29-9zM578 344l-12 3c-9 2-27 12-24 12l10-3a183 183 0 0155-12h4l-3-1c-5-1-23-1-30 1"/></svg>